<?xml version="1.0" encoding="UTF-8" standalone="no"?>
<svg width="173px" height="174px" viewBox="0 0 173 174" version="1.1" xmlns="http://www.w3.org/2000/svg" xmlns:xlink="http://www.w3.org/1999/xlink" xmlns:sketch="http://www.bohemiancoding.com/sketch/ns">
    <!-- Generator: Sketch 3.3.3 (12072) - http://www.bohemiancoding.com/sketch -->
    <title>Artboard 1</title>
    <desc>Created with Sketch.</desc>
    <defs>
        <linearGradient x1="1.06341024e-07%" y1="9.14856261e-08%" x2="74.5209927%" y2="64.1103734%" id="linearGradient-1">
            <stop stop-color="#5A9FD4" offset="0%"></stop>
            <stop stop-color="#306998" offset="100%"></stop>
        </linearGradient>
        <linearGradient x1="49.9999998%" y1="82.2756107%" x2="23.4426562%" y2="44.914431%" id="linearGradient-2">
            <stop stop-color="#FFD43B" offset="0%"></stop>
            <stop stop-color="#FFE873" offset="100%"></stop>
        </linearGradient>
    </defs>
    <g id="Page-1" stroke="none" stroke-width="1" fill="none" fill-rule="evenodd" sketch:type="MSPage">
        <g id="Artboard-1" sketch:type="MSArtboardGroup">
            <g id="Swisspy-Logo" sketch:type="MSLayerGroup" transform="translate(-38.000000, 1.000000)">
                <g id="Python-Logo" transform="translate(40.636042, 0.000000)" sketch:type="MSShapeGroup">
                    <path d="M83.1804483,0.602242176 C76.2390252,0.634472347 69.6101217,1.22604064 63.777369,2.25738598 C46.5948107,5.29075014 43.4751242,11.6398414 43.4751227,23.3486472 L43.4751227,38.8124193 L84.0796153,38.8124193 L84.0796153,43.96701 L43.4751227,43.96701 L28.2366068,43.96701 C16.4358107,43.96701 6.10269581,51.0547588 2.87062968,64.538083 C-0.857517718,79.9931024 -1.02288132,89.637286 2.87062968,105.774809 C5.7569421,117.786956 12.649847,126.345879 24.4506401,126.345882 L38.4113922,126.345882 L38.4113922,107.808271 C38.4113922,94.4159415 50.0072691,82.6027985 63.777369,82.6027954 L104.334537,82.6027954 C115.624216,82.6027954 124.636788,73.3140694 124.636783,61.9844326 L124.636783,23.3486472 C124.636783,12.3526829 115.353623,4.09256797 104.334537,2.25738598 C97.3592918,1.09712026 90.1218713,0.570012005 83.1804483,0.602242176 L83.1804483,0.602242176 Z M61.2218415,13.0394658 C65.4160066,13.0394658 68.8410994,16.5179478 68.8410994,20.7949968 C68.8410964,25.0568857 65.4160066,28.5032379 61.2218415,28.5032379 C57.0126401,28.5032364 53.6025835,25.0568842 53.6025835,20.7949968 C53.602582,16.5179493 57.0126401,13.0394658 61.2218415,13.0394658 L61.2218415,13.0394658 Z" id="path1948" fill="url(#linearGradient-1)"></path>
                    <path d="M129.700514,43.96701 L129.700514,61.9844326 C129.700514,75.9530972 117.849083,87.7100948 104.334537,87.7100963 L63.777369,87.7100963 C52.6680813,87.7100963 43.4751242,97.2111635 43.4751227,108.328459 L43.4751227,146.96424 C43.4751227,157.960206 53.0439081,164.42791 63.777369,167.582603 C76.63047,171.359145 88.9559207,172.041662 104.334537,167.582603 C114.556882,164.625075 124.636788,158.673034 124.636783,146.96424 L124.636783,131.500472 L84.0796153,131.500472 L84.0796153,126.345882 L124.636783,126.345882 L144.939036,126.345882 C156.739833,126.345882 161.137294,118.120618 165.241267,105.774809 C169.480535,93.0649901 169.300156,80.8424397 165.241267,64.538083 C162.324891,52.7989467 156.754841,43.96701 144.939036,43.96701 L129.700514,43.96701 L129.700514,43.96701 Z M106.890065,141.809654 C111.099269,141.809658 114.509323,145.256011 114.509323,149.51789 C114.50932,153.794933 111.099265,157.273421 106.890065,157.273421 C102.695895,157.273421 99.2708067,153.794933 99.2708067,149.51789 C99.2708097,145.256011 102.69589,141.809654 106.890065,141.809654 L106.890065,141.809654 Z" id="path1950" fill="url(#linearGradient-2)"></path>
                </g>
                <g id="Mountain" transform="translate(0.000000, 23.798969)" sketch:type="MSShapeGroup">
                    <path d="M53.715442,46.3189793 L83.6814113,89.4022445 L142.482559,0.468898891 L249.116608,146.319588 L1.42108547e-14,146.319586 L53.715442,46.3189793 Z" id="Path-16" fill-opacity="0.4" fill="#474747"></path>
                    <path d="M53.0538431,53.9875413 L5.77182593,146.539088 L37.2931707,146.539088 L53.0538431,53.9875413 Z" id="Path-7" fill="#FFFFFF"></path>
                    <path d="M141.313608,7.71176808 L63.7711003,146.319588 L115.466106,146.319588 L141.313608,7.71176808 Z" id="Path-7-Copy" fill="#FFFFFF"></path>
                </g>
            </g>
        </g>
    </g>
</svg>